<svg xmlns="http://www.w3.org/2000/svg" width="64" height="64" viewBox="0 0 64 64" role="img" aria-label="BioSmart">
  <defs>
    <linearGradient id="g" x1="10" y1="8" x2="54" y2="56" gradientUnits="userSpaceOnUse">
      <stop offset="0" stop-color="#22c55e"/>
      <stop offset="1" stop-color="#0f766e"/>
    </linearGradient>
  </defs>
  <rect x="6" y="6" width="52" height="52" rx="16" fill="url(#g)"/>
  <rect x="18" y="18" width="28" height="28" rx="8" fill="rgba(11,18,32,.20)"/>
  <circle cx="32" cy="32" r="7.5" fill="rgba(255,255,255,.92)"/>
  <g stroke="rgba(255,255,255,.92)" stroke-width="3.5" stroke-linecap="round">
    <path d="M20 27v-3a4 4 0 0 1 4-4h3"/>
    <path d="M44 27v-3a4 4 0 0 0-4-4h-3"/>
    <path d="M20 37v3a4 4 0 0 0 4 4h3"/>
    <path d="M44 37v3a4 4 0 0 1-4 4h-3"/>
  </g>
</svg>