<?xml version="1.0" encoding="UTF-8"?>
<svg xmlns="http://www.w3.org/2000/svg" width="512" height="512" viewBox="0 0 25 25" shape-rendering="crispEdges">
  <defs>
    <filter id="distort" x="-20%" y="-20%" width="140%" height="140%">
      <feTurbulence type="fractalNoise" baseFrequency="0.038" numOctaves="2" seed="940" result="noise"/>
      <feDisplacementMap in="SourceGraphic" in2="noise" scale="0.72" xChannelSelector="R" yChannelSelector="G"/>
    </filter>
  </defs>
  <path fill="#ffffff" d="M0 0h25v25H0z"/>
  <g filter="url(#distort)" opacity="0.88">
    <path stroke="#facc15" d="M2 2.5h7m1 0h3m1 0h1m1 0h7M2 3.5h1m5 0h1m1 0h4m2 0h1m5 0h1M2 4.5h1m1 0h3m1 0h1m4 0h2m1 0h1m1 0h3m1 0h1M2 5.5h1m1 0h3m1 0h1m1 0h3m1 0h1m1 0h1m1 0h3m1 0h1M2 6.5h1m1 0h3m1 0h1m1 0h2m1 0h2m1 0h1m1 0h3m1 0h1M2 7.5h1m5 0h1m1 0h1m2 0h2m1 0h1m5 0h1M2 8.5h7m1 0h1m1 0h1m1 0h1m1 0h7M11 9.5h2M5 10.5h1m2 0h1m3 0h3m2 0h3m1 0h2M3 11.5h1m2 0h1m6 0h5m2 0h1m1 0h1M2 12.5h1m1 0h2m1 0h2m3 0h2m1 0h1m5 0h1M2 13.5h1m1 0h2m3 0h3m3 0h1m1 0h3m1 0h2M2 14.5h1m1 0h1m1 0h1m1 0h1m4 0h6m3 0h1M10 15.5h1m1 0h1m1 0h2m2 0h1m1 0h1m1 0h1M2 16.5h7m3 0h1m4 0h1m1 0h1M2 17.5h1m5 0h1m2 0h1m1 0h1m1 0h2m2 0h1M2 18.5h1m1 0h3m1 0h1m2 0h1m1 0h1m2 0h3m1 0h1m1 0h1M2 19.5h1m1 0h3m1 0h1m1 0h1m1 0h2m1 0h1m2 0h1m2 0h2M2 20.5h1m1 0h3m1 0h1m3 0h2m1 0h1m4 0h1m1 0h1M2 21.5h1m5 0h1m3 0h4m2 0h3m1 0h1M2 22.5h7m3 0h1m3 0h1m2 0h2"/>
  </g>
  <g><rect x="1" y="15" width="1" height="1" fill="#ffffff" opacity="0.61"/><rect x="19" y="6" width="1" height="2" fill="#ffffff" opacity="0.55"/><rect x="12" y="6" width="1" height="2" fill="#ffffff" opacity="0.45"/><rect x="22" y="21" width="1" height="2" fill="#ffffff" opacity="0.62"/><rect x="11" y="14" width="2" height="2" fill="#ffffff" opacity="0.49"/><rect x="8" y="11" width="3" height="1" fill="#ffffff" opacity="0.41"/><rect x="17" y="11" width="3" height="2" fill="#ffffff" opacity="0.64"/><rect x="13" y="16" width="1" height="2" fill="#ffffff" opacity="0.50"/><rect x="5" y="14" width="1" height="1" fill="#ffffff" opacity="0.50"/><rect x="8" y="17" width="2" height="2" fill="#ffffff" opacity="0.44"/><rect x="12" y="2" width="2" height="2" fill="#ffffff" opacity="0.58"/><rect x="12" y="8" width="3" height="2" fill="#ffffff" opacity="0.65"/><rect x="9" y="6" width="1" height="3" fill="#ffffff" opacity="0.50"/><rect x="8" y="5" width="1" height="3" fill="#ffffff" opacity="0.47"/><rect x="16" y="3" width="2" height="3" fill="#ffffff" opacity="0.65"/><rect x="14" y="12" width="1" height="3" fill="#ffffff" opacity="0.66"/><rect x="4" y="20" width="3" height="1" fill="#ffffff" opacity="0.42"/><rect x="18" y="2" width="3" height="2" fill="#ffffff" opacity="0.45"/><rect x="5" y="22" width="3" height="2" fill="#ffffff" opacity="0.56"/><rect x="6" y="9" width="1" height="1" fill="#ffffff" opacity="0.51"/><rect x="2" y="20" width="3" height="2" fill="#ffffff" opacity="0.52"/><rect x="9" y="7" width="1" height="2" fill="#ffffff" opacity="0.54"/><rect x="1" y="10" width="1" height="1" fill="#ffffff" opacity="0.48"/><rect x="12" y="5" width="3" height="3" fill="#ffffff" opacity="0.55"/><rect x="13" y="3" width="3" height="2" fill="#ffffff" opacity="0.45"/><rect x="6" y="15" width="2" height="1" fill="#ffffff" opacity="0.52"/><rect x="18" y="22" width="1" height="2" fill="#ffffff" opacity="0.57"/><rect x="11" y="18" width="3" height="3" fill="#ffffff" opacity="0.62"/><rect x="17" y="2" width="3" height="1" fill="#ffffff" opacity="0.46"/><rect x="6" y="8" width="1" height="3" fill="#ffffff" opacity="0.43"/></g>
</svg>